<svg width="24" height="24" viewBox="0 0 24 24" fill="none" xmlns="http://www.w3.org/2000/svg">
<path d="M20.5875 11.1401C20.2929 10.7491 19.1987 10.4799 18.7358 9.77626C18.2729 9.07265 17.894 7.54891 16.7158 6.96344C15.5377 6.37797 13.2858 6.21362 11.9999 6.21362C10.7141 6.21362 8.46382 6.37436 7.28405 6.96223C6.10427 7.55011 5.72695 9.07265 5.26404 9.77505C4.80114 10.4775 3.70695 10.7491 3.41241 11.1401C3.11786 11.5311 2.91052 14.0027 3.03669 15.2146C3.16287 16.4266 3.39834 17.1434 3.39834 17.1434H6.85409C7.41987 17.1434 7.60391 16.9309 8.76118 16.822C10.031 16.7014 11.2766 16.6612 11.9999 16.6612C12.7232 16.6612 14.0091 16.7014 15.2781 16.822C16.4353 16.9317 16.6254 17.1434 17.1852 17.1434H20.6007C20.6007 17.1434 20.8362 16.4266 20.9624 15.2146C21.0886 14.0027 20.8804 11.5311 20.5875 11.1401ZM17.7863 17.1434H20.0366V17.7864H17.7863V17.1434ZM3.96332 17.1434H6.21357V17.7864H3.96332V17.1434Z" stroke="#8A8A8A" stroke-width="1.28586" stroke-linecap="round" stroke-linejoin="round"/>
<path d="M16.3586 14.1362C16.1211 13.8617 15.3472 13.6327 14.3225 13.4792C13.2979 13.3257 12.9242 13.2859 12.008 13.2859C11.0918 13.2859 10.6751 13.3518 9.69303 13.4792C8.71095 13.6066 7.97359 13.8332 7.65735 14.1362C7.18279 14.5959 7.87796 15.1118 8.42365 15.1745C8.95245 15.2348 10.0097 15.2127 12.0124 15.2127C14.0151 15.2127 15.0723 15.2348 15.6012 15.1745C16.146 15.1082 16.7914 14.628 16.3586 14.1362ZM19.0549 11.4797C19.0526 11.4478 19.0387 11.4178 19.0157 11.3956C18.9927 11.3733 18.9623 11.3603 18.9303 11.3591C18.4558 11.3422 17.974 11.376 17.1193 11.6279C16.6832 11.7552 16.2737 11.9603 15.9106 12.2331C15.8189 12.3046 15.8515 12.4979 15.9664 12.5184C16.6709 12.601 17.3796 12.6426 18.0889 12.643C18.5144 12.643 18.9536 12.5224 19.0352 12.1431C19.0768 11.9244 19.0834 11.7005 19.0549 11.4797ZM4.94499 11.4797C4.94725 11.4478 4.96121 11.4178 4.9842 11.3956C5.00719 11.3733 5.03759 11.3603 5.06956 11.3591C5.54412 11.3422 6.02592 11.376 6.88061 11.6279C7.31667 11.7552 7.72614 11.9603 8.08932 12.2331C8.18094 12.3046 8.14839 12.4979 8.03347 12.5184C7.32899 12.601 6.6203 12.6426 5.911 12.643C5.48546 12.643 5.04626 12.5224 4.96468 12.1431C4.9231 11.9244 4.91645 11.7005 4.94499 11.4797Z" fill="#8A8A8A"/>
<path d="M19.0722 9.42822H19.7151M4.28479 9.42822H4.92772M4.84735 10.1917C4.84735 10.1917 6.70984 9.7095 11.9999 9.7095C17.2901 9.7095 19.1525 10.1917 19.1525 10.1917" stroke="#8A8A8A" stroke-width="1.28586" stroke-linecap="round" stroke-linejoin="round"/>
</svg>
